<svg xmlns="http://www.w3.org/2000/svg" viewBox="0 0 120 120" role="img" aria-label="Tree and neural pathway symbol"><circle cx="60" cy="60" r="56" fill="#f6efe3" stroke="#566b4f" stroke-width="4"/><path d="M60 88V49M60 58C47 48 41 37 44 26M60 56C72 47 79 35 77 24M60 69C45 64 35 55 31 45M60 68C76 62 85 54 90 43" fill="none" stroke="#31412f" stroke-width="6" stroke-linecap="round"/><path d="M60 87c-9 4-17 10-24 18M60 87c9 4 17 10 24 18M60 87v20" fill="none" stroke="#8c6242" stroke-width="5" stroke-linecap="round"/><g fill="#8fa690"><ellipse cx="42" cy="25" rx="9" ry="6" transform="rotate(-30 42 25)"/><ellipse cx="78" cy="23" rx="9" ry="6" transform="rotate(30 78 23)"/><ellipse cx="29" cy="43" rx="9" ry="6" transform="rotate(-20 29 43)"/><ellipse cx="91" cy="41" rx="9" ry="6" transform="rotate(20 91 41)"/><ellipse cx="43" cy="46" rx="8" ry="5" transform="rotate(25 43 46)"/><ellipse cx="77" cy="45" rx="8" ry="5" transform="rotate(-25 77 45)"/></g><g fill="#c89468"><circle cx="48" cy="34" r="3"/><circle cx="70" cy="34" r="3"/><circle cx="38" cy="52" r="3"/><circle cx="82" cy="53" r="3"/></g></svg>
